Coordinates
version=1
nRows=22
nColumns=24
inDegrees=yes

Units are S.I. units (second, meters, Newtons, ...)
Angles are in degrees.

endheader
time	pelvis_tilt	pelvis_list	pelvis_rotation	pelvis_tx	pelvis_ty	pelvis_tz	hip_flexion_r	hip_adduction_r	hip_rotation_r	knee_angle_r	ankle_angle_r	subtalar_angle_r	mtp_angle_r	hip_flexion_l	hip_adduction_l	hip_rotation_l	knee_angle_l	ankle_angle_l	subtalar_angle_l	mtp_angle_l	lumbar_extension	lumbar_bending	lumbar_rotation
      1.10833333	     -4.83004616	     -4.99209967	     -4.40129261	     -0.21751132	      1.00139480	      0.32936172	     -6.36063811	      9.87954742	      2.19404269	    -11.44391966	     15.26701797	      2.46040504	     10.63590557	     25.47503349	     -4.80916000	    -11.93345406	      7.60174775	      2.13892793	      5.58642306	      2.43286163	      2.75271971	      4.42315615	     10.83837498
      1.11250000	     -4.83512077	     -4.85046447	     -4.49303025	     -0.21195524	      1.00064588	      0.32919408	     -6.47763347	      9.69357668	      2.29673330	    -11.87861084	     15.46076607	      2.41337506	     10.62644991	     25.49983684	     -4.64645497	    -11.67679001	      7.32647608	      2.21066707	      5.51972561	      2.50507254	      2.77200963	      4.25879752	     10.89027775
      1.11666667	     -4.85102176	     -4.70589080	     -4.58843875	     -0.20635985	      0.99991288	      0.32903004	     -6.56107434	      9.50461954	      2.38070300	    -12.36324407	     15.66347856	      2.46354859	      9.90384146	     25.51643023	     -4.48658142	    -11.30770760	      7.03561736	      2.06306825	      5.15251016	      5.95784073	      2.82090062	      4.09153516	     10.97616753
      1.12083333	     -4.82076171	     -4.54052331	     -4.65810396	     -0.20076134	      0.99927239	      0.32884470	     -6.68752188	      9.30142600	      2.50584647	    -12.85057079	     15.81958946	      2.34195194	      9.90759501	     25.53130391	     -4.30074493	    -11.07659888	      6.59325323	      2.09404955	      5.07049085	      5.97440318	      2.79628578	      3.88587500	     11.02044134
      1.12500000	     -4.78742576	     -4.35102768	     -4.72741380	     -0.19510583	      0.99866717	      0.32866965	     -6.80381095	      9.07574955	      2.63759869	    -13.36633071	     15.95244144	      2.20530564	      9.91036046	     25.54144293	     -4.09358915	    -10.83419268	      6.10086862	      2.07188460	      4.89747512	      6.00221791	      2.78499653	      3.65232528	     11.06927241
      1.12916667	     -4.75889434	     -4.17252183	     -4.79545074	     -0.18943480	      0.99807977	      0.32851227	     -6.90365566	      8.86987853	      2.80425610	    -13.90711018	     16.03780428	      2.05215792	      9.90915742	     25.51971295	     -3.89851261	    -10.36460206	      5.64690659	      1.81517477	      4.24720075	      6.16163424	      2.79123664	      3.41755088	     11.20845664
      1.13333333	     -4.70775553	     -3.97603176	     -4.84389872	     -0.18372662	      0.99755555	      0.32833050	     -7.01925398	      8.65141023	      2.98074125	    -14.45982499	     16.07816681	      1.80436215	      9.90886841	     25.50305160	     -3.67943120	     -9.98946710	      5.10089330	      1.61436534	      3.76290271	      6.37291012	      2.76565547	      3.16006927	     11.22007170
      1.13750000	     -4.64374355	     -3.76993411	     -4.88317438	     -0.17798489	      0.99707985	      0.32813337	     -7.13239598	      8.42597415	      3.15464436	    -15.04482112	     16.09181730	      1.54418756	      9.91373300	     25.47739067	     -3.44709972	     -9.61266382	      4.51899255	      1.36556442	      3.23244601	      6.61708818	      2.73262830	      2.88965174	     11.25456334
      1.14166667	     -4.57825012	     -3.53669936	     -4.91505178	     -0.17219153	      0.99664292	      0.32791805	     -7.22042562	      8.17172413	      3.28709367	    -15.68278241	     16.11937265	      1.31048722	      9.91743865	     25.48465543	     -3.18796750	     -9.39824883	      3.83846492	      1.22738511	      2.96853355	      6.68774603	      2.72311605	      2.57348625	     11.26095817
      1.14583333	     -4.51836761	     -3.33646403	     -4.93657548	     -0.16641438	      0.99622444	      0.32770123	     -7.30933205	      7.97091813	      3.52268580	    -16.30412960	     16.00608863	      0.93026995	      9.93885909	     25.44017100	     -2.95104038	     -8.81610570	      3.27149831	      0.73394359	      1.99656510	      6.98114941	      2.68119416	      2.31912321	     11.29702367
      1.15000000	     -4.44354354	     -3.10741390	     -4.95038132	     -0.16058782	      0.99586454	      0.32745014	     -7.38442321	      7.73482975	      3.69873213	    -16.98336897	     15.91347297	      0.60796369	      9.97446414	     25.40850164	     -2.68224589	     -8.40072868	      2.62950637	      0.32202117	      1.28083109	      7.27594834	      2.64524280	      2.01754121	     11.28876463
      1.15416667	     -4.36312053	     -2.87618590	     -4.94033309	     -0.15472655	      0.99553985	      0.32717490	     -7.45169568	      7.50433018	      3.85614854	    -17.68910958	     15.77911379	      0.27133167	     10.04270869	     25.37279319	     -2.40054524	     -7.92717073	      1.97304530	     -0.08019327	      0.50263850	      7.66057345	      2.61124335	      1.69563214	     11.28353817
      1.15833333	     -4.29551175	     -2.63626247	     -4.94946122	     -0.14885107	      0.99525231	      0.32689758	     -7.47725173	      7.26477721	      4.02846394	    -18.44779171	     15.60185560	     -0.07965741	     10.11142249	     25.35249048	     -2.11728434	     -7.54357571	      1.30760294	     -0.59977892	     -0.25437665	      7.93337139	      2.59438536	      1.39050620	     11.26942337
      1.16250000	     -4.21839769	     -2.39003204	     -4.93532220	     -0.14294848	      0.99501100	      0.32658281	     -7.49534111	      7.02130250	      4.16609046	    -19.23631931	     15.38487424	     -0.41571227	     10.20019581	     25.32293721	     -1.81614344	     -7.11596370	      0.63516145	     -1.10661571	     -1.04871761	      8.18506687	      2.56551532	      1.06275163	     11.24218458
      1.16666667	     -4.14048595	     -2.13638854	     -4.91306692	     -0.13701986	      0.99481225	      0.32624254	     -7.49079380	      6.77139429	      4.28048733	    -20.06697723	     15.12809027	     -0.74110567	     10.30787068	     25.29368549	     -1.50283392	     -6.70285481	     -0.04418233	     -1.63148644	     -1.83622475	      8.40473173	      2.54231300	      0.72688308	     11.20544426
      1.17083333	     -4.05027100	     -1.87782840	     -4.87871543	     -0.13107783	      0.99466645	      0.32586558	     -7.47600424	      6.51418924	      4.35948464	    -20.93685182	     14.82425762	     -1.04167273	     10.45453948	     25.24863769	     -1.17643897	     -6.26770911	     -0.72211159	     -2.15027280	     -2.64469898	      8.61941270	      2.49988137	      0.38695325	     11.15592204
      1.17500000	     -3.95997639	     -1.61534391	     -4.83624768	     -0.12511811	      0.99456679	      0.32546409	     -7.43344284	      6.25177494	      4.40251658	    -21.85486138	     14.47954147	     -1.31849453	     10.62692340	     25.20761303	     -0.84291105	     -5.87622148	     -1.41154686	     -2.66748048	     -3.40285737	      8.79811835	      2.46955033	      0.03763553	     11.09735263
      1.17916667	     -3.87421293	     -1.34781134	     -4.78501034	     -0.11914320	      0.99450301	      0.32502724	     -7.35960704	      5.98062365	      4.40806852	    -22.81660642	     14.08678701	     -1.56553796	     10.83032591	     25.17215562	     -0.50050051	     -5.49490858	     -2.10684367	     -3.16365589	     -4.12857282	      8.94432605	      2.44179018	     -0.31603876	     11.02403811
      1.18333333	     -3.78172916	     -1.07217833	     -4.72278478	     -0.11314147	      0.99449596	      0.32455858	     -7.26707593	      5.69575043	      4.36624586	    -23.81859887	     13.64297548	     -1.76888116	     11.07528524	     25.12461231	     -0.14328820	     -5.11919321	     -2.80001670	     -3.63257694	     -4.82802723	      9.06189787	      2.40903999	     -0.67605525	     10.94035819
      1.18750000	     -3.68252257	     -0.79313577	     -4.65485595	     -0.10713705	      0.99454102	      0.32406464	     -7.15301504	      5.40032125	      4.28335844	    -24.86573684	     13.15111625	     -1.93645522	     11.34739345	     25.07301563	      0.21893107	     -4.78269399	     -3.50352002	     -4.06344752	     -5.45587388	      9.14273553	      2.36610291	     -1.04661235	     10.85091325
      1.19166667	     -3.55550379	     -0.50635484	     -4.57427338	     -0.10111343	      0.99466854	      0.32352593	     -7.04195852	      5.08412437	      4.13856378	    -25.95214347	     12.60274216	     -2.05097308	     11.68438495	     24.98267541	      0.59820017	     -4.44673323	     -4.19634403	     -4.44930436	     -6.06510979	      9.19697512	      2.28951187	     -1.42280375	     10.74004509
      1.19583333	     -3.45215342	     -0.22395552	     -4.49244600	     -0.09508413	      0.99480159	      0.32295757	     -6.87335637	      4.76459866	      3.95464251	    -27.08843775	     11.98565824	     -2.13043601	     12.16905229	     24.91367241	      0.97399300	     -4.11579784	     -4.89019192	     -4.77599790	     -6.66266008	      9.22352156	      2.24447150	     -1.77211277	     10.60790610
